<mxfile host="app.diagrams.net" modified="2023-09-04T04:45:35.402Z" agent="Mozilla/5.0 (X11; Ubuntu; Linux x86_64; rv:109.0) Gecko/20100101 Firefox/117.0" version="21.7.2" etag="0lu_LM1nLiSPs_fDa_7M" type="github">
  <diagram name="Page-1" id="qnlmp7pOQC3rA670gsTy">
    <mxGraphModel>
      <root>
        <mxCell id="0" />
        <mxCell id="1" parent="0" />
      </root>
    </mxGraphModel>
  </diagram>
</mxfile>
